<?xml version="1.0" standalone="no"?>
<!DOCTYPE svg PUBLIC "-//W3C//DTD SVG 20010904//EN"
 "http://www.w3.org/TR/2001/REC-SVG-20010904/DTD/svg10.dtd">
<svg version="1.0" xmlns="http://www.w3.org/2000/svg"
 width="611.000000pt" height="408.000000pt" viewBox="0 0 611.000000 408.000000"
 preserveAspectRatio="xMidYMid meet">
<metadata>
Created by potrace 1.16, written by Peter Selinger 2001-2019
</metadata>
<g transform="translate(0.000000,408.000000) scale(0.100000,-0.100000)"
fill="#000000" stroke="none">
<path d="M4806 4002 c-42 -113 -172 -415 -217 -504 -21 -43 -48 -82 -58 -88
-49 -26 -447 -5 -684 36 -107 18 -112 20 -221 83 -132 75 -175 78 -196 15 -22
-64 15 -177 77 -239 49 -50 89 -73 172 -100 53 -17 53 -17 85 6 l31 23 -18
-27 c-17 -26 -17 -27 10 -33 231 -55 259 -70 429 -239 190 -187 276 -359 289
-570 l4 -80 -14 100 c-17 117 -41 189 -100 302 -65 123 -189 274 -213 259 -5
-3 -12 -45 -15 -93 -4 -69 -18 -128 -65 -278 -60 -190 -75 -250 -87 -335 -7
-47 -34 -95 -95 -170 -20 -25 -47 -62 -59 -82 -22 -37 -22 -38 -3 -38 11 0 30
-9 43 -20 l24 -21 -32 16 c-18 8 -39 15 -47 15 -8 0 -33 -28 -56 -62 -24 -35
-52 -73 -63 -85 -13 -15 -16 -23 -8 -23 7 0 24 -9 38 -20 29 -23 18 -27 -11
-5 -31 24 -50 18 -104 -30 -63 -57 -97 -121 -83 -158 16 -42 42 -49 83 -24 81
50 333 287 425 399 30 37 70 77 90 89 l34 21 -23 26 c-21 24 -20 24 14 -3 33
-27 37 -34 32 -65 -9 -57 -55 -191 -85 -252 -27 -53 -28 -58 -11 -67 15 -9 15
-10 -5 -11 -15 0 -33 -15 -54 -46 -17 -25 -51 -69 -76 -96 l-45 -51 31 -24
c17 -14 31 -30 31 -36 0 -7 -5 -4 -11 6 -5 9 -23 24 -38 32 -28 14 -30 13
-111 -53 -105 -84 -122 -107 -122 -165 -2 -104 37 -102 216 14 206 134 391
290 415 351 10 23 10 23 10 -4 1 -21 9 -32 34 -43 31 -15 25 -15 -19 -1 -19 6
-28 -4 -67 -71 -39 -67 -87 -165 -87 -179 0 -2 6 -4 14 -4 8 0 24 -9 37 -21
l24 -21 -25 16 c-26 17 -70 22 -70 7 0 -5 -28 -39 -63 -77 -88 -97 -101 -120
-101 -182 -1 -42 3 -57 19 -68 58 -42 106 -25 197 69 l67 70 30 -32 c16 -17
36 -31 46 -31 55 0 132 84 190 206 19 42 35 77 35 79 0 2 41 88 91 192 50 103
97 213 105 243 9 37 14 110 14 230 0 236 39 608 80 772 23 91 54 152 138 273
31 44 84 121 118 171 78 116 105 149 289 364 161 188 198 233 291 350 70 89
98 129 107 153 6 16 -22 17 -506 17 l-512 0 -29 -78z"/>
<path d="M1895 3128 c-11 -6 -52 -42 -91 -80 l-70 -69 -14 25 c-27 51 -89 45
-149 -15 -43 -43 -85 -126 -289 -564 l-47 -100 -6 -255 c-4 -140 -14 -313 -23
-385 -48 -380 -67 -449 -164 -591 -195 -285 -247 -357 -319 -441 -365 -429
-467 -555 -517 -640 -6 -10 98 -13 507 -13 l515 0 6 25 c8 31 158 384 219 517
64 137 52 132 310 125 218 -5 467 -34 548 -62 23 -8 74 -35 115 -59 96 -59
147 -73 181 -51 24 16 25 21 21 89 -8 122 -62 198 -181 255 -94 45 -122 49
-152 21 -28 -26 -34 -17 -9 12 19 21 27 17 -100 48 -116 27 -148 41 -210 92
-133 108 -251 238 -316 347 -63 107 -111 266 -109 358 1 23 6 3 15 -51 7 -50
19 -106 25 -125 20 -63 99 -214 144 -276 43 -60 132 -153 138 -144 2 2 9 47
15 99 7 64 31 157 70 281 33 102 65 217 71 255 22 121 30 142 95 226 71 94 89
125 81 137 -3 5 1 11 9 13 8 2 40 39 71 82 42 59 53 81 43 87 -29 17 -52 38
-42 39 6 0 17 -7 24 -15 20 -24 52 -17 97 23 91 79 117 148 73 192 -25 25 -29
25 -67 -2 -113 -82 -241 -204 -448 -425 -37 -40 -74 -73 -81 -73 -20 0 -17
-10 9 -38 19 -22 19 -23 2 -12 -11 6 -28 23 -39 37 -18 25 -18 27 3 106 12 44
39 117 61 164 l39 83 -40 20 c-21 11 -39 23 -39 25 0 3 13 -1 30 -10 46 -24
58 -19 95 38 19 28 52 72 74 97 l40 45 -27 23 c-25 22 -25 22 -2 8 13 -9 31
-16 40 -16 23 0 172 122 193 158 19 34 22 93 7 123 -20 37 -61 23 -201 -68
-238 -153 -413 -309 -423 -376 -13 -75 -15 -78 -11 -14 l4 67 -32 15 c-23 11
-25 13 -7 9 14 -4 30 -8 35 -11 16 -5 135 207 135 240 0 7 -16 21 -35 31 -19
11 -33 21 -31 24 3 2 15 -3 28 -12 12 -9 29 -16 38 -16 17 0 140 131 169 181
11 19 23 53 27 76 6 38 3 45 -24 73 -32 32 -70 39 -107 18z"/>
<path d="M3029 2621 c-15 -27 -32 -43 -49 -47 -78 -16 -170 -52 -220 -86 -54
-36 -62 -38 -133 -38 -42 0 -78 -4 -82 -9 -3 -6 7 -34 21 -64 l27 -55 -26 -56
c-37 -78 -46 -125 -47 -234 0 -75 5 -109 26 -168 l25 -75 -25 -44 c-41 -69
-37 -75 43 -75 67 0 71 -1 118 -42 57 -49 165 -103 240 -118 50 -11 56 -15 76
-56 11 -24 25 -44 29 -44 5 0 18 20 30 44 20 41 24 45 81 57 79 16 181 66 240
117 47 41 51 42 118 42 80 0 84 6 43 75 l-25 44 25 75 c21 60 26 93 26 174 0
102 -11 153 -49 234 l-22 46 25 51 c14 28 26 55 26 61 0 6 -30 10 -75 10 -72
0 -77 2 -138 43 -55 38 -144 74 -229 91 -15 3 -29 14 -32 24 -4 9 -15 28 -25
41 l-18 24 -24 -42z m-119 -207 c0 -7 -77 -152 -133 -248 l-40 -70 -53 105
c-29 57 -53 109 -53 115 -1 6 17 32 40 58 l41 46 99 0 c54 0 99 -3 99 -6z
m257 -6 c5 -7 26 -43 47 -80 l36 -67 -57 27 c-83 38 -194 38 -276 0 l-57 -27
36 67 c54 98 44 92 159 92 70 0 106 -4 112 -12z m272 -34 c23 -26 41 -53 41
-61 0 -7 -23 -59 -51 -116 -51 -101 -52 -102 -68 -78 -23 34 -160 285 -161
294 0 4 45 7 99 7 l99 0 41 -46z m-318 -85 c69 -15 129 -73 129 -125 0 -29 -8
-44 -38 -74 -46 -47 -105 -64 -185 -56 -68 7 -105 24 -141 66 -59 71 -7 162
109 191 45 10 69 10 126 -2z m-452 -117 l54 -109 -63 -111 c-34 -62 -66 -112
-70 -112 -25 0 -51 179 -39 264 9 67 45 176 58 176 4 0 31 -49 60 -108z m860
54 c33 -90 45 -177 32 -248 -16 -92 -31 -140 -42 -136 -6 2 -25 30 -43 63 -18
33 -45 82 -59 108 l-27 48 52 109 c29 60 56 109 60 109 4 1 16 -23 27 -53z
m-618 -183 c48 -24 65 -28 144 -28 104 0 150 18 222 87 l41 41 21 -41 21 -41
-90 -181 -90 -180 -125 0 -125 0 -89 181 -89 181 20 40 21 40 32 -35 c18 -20
57 -48 86 -64z m-91 -175 c44 -90 80 -164 80 -165 0 -2 -51 -3 -114 -3 l-114
0 -31 42 c-17 23 -31 46 -31 52 0 11 121 236 127 236 2 0 40 -73 83 -162z
m614 58 c31 -55 59 -109 62 -120 3 -14 -6 -36 -26 -63 l-32 -43 -114 0 c-63 0
-114 2 -114 4 0 9 162 327 165 324 2 -2 28 -48 59 -102z m-486 -322 l33 -67
-42 7 c-55 9 -154 56 -199 95 l-35 30 105 1 106 0 32 -66z m210 59 c-56 -128
-60 -133 -103 -133 -40 0 -41 1 -73 65 -18 36 -32 68 -32 70 0 3 48 5 106 5
58 0 104 -3 102 -7z m212 -24 c-45 -39 -144 -86 -198 -95 -23 -4 -42 -4 -42
-2 0 3 14 33 31 66 l31 62 106 0 107 -1 -35 -30z"/>
<path d="M2993 2210 c-41 -25 -44 -60 -7 -89 56 -44 164 -14 164 45 0 30 -51
64 -95 64 -16 0 -45 -9 -62 -20z"/>
</g>
</svg>
